[Header]
FileType HTR
DataType HTRS
FileVersion 1
NumSegments 22
NumFrames 5
DataFrameRate 24
EulerRotationOrder ZYX
CalibrationUnits mm
RotationUnits Degrees
GlobalAxisofGravity Y
BoneLengthAxis Y
ScaleFactor 1.0
[SegmentNames&Hierarchy]
reference	GLOBAL
Hips	reference
Spine	Hips
Spine1	Spine
Neck	Spine1
Head	Neck
LeftShoulder	Spine1
LeftArm	LeftShoulder
LeftForeArm	LeftArm
LeftHand	LeftForeArm
RightShoulder	Spine1
RightArm	RightShoulder
RightForeArm	RightArm
RightHand	RightForeArm
LeftUpLeg	Hips
LeftLeg	LeftUpLeg
LeftFoot	LeftLeg
LeftToeBase	LeftFoot
RightUpLeg	Hips
RightLeg	RightUpLeg
RightFoot	RightLeg
RightToeBase	RightFoot
[BasePosition]
reference	0	0	0	0	0	0	1
Hips	0	0	0	0	0	0	1
Spine	0	0	0	0	-0	90	1
Spine1	0	0	0	0	0	0	1
Neck	0	0	0	-7.352430803	-7.352430803	90	1
Head	0	0	0	0	-0	90	1
LeftShoulder	0	0	0	0	0	0	1
LeftArm	0	0	0	0	0	0	1
LeftForeArm	0	0	0	0	0	0	1
LeftHand	0	0	0	0	0	0	1
RightShoulder	0	0	0	0	-0	180	1
RightArm	0	0	0	0	-0	180	1
RightForeArm	0	0	0	0	-0	180	1
RightHand	0	0	0	0	-0	180	1
LeftUpLeg	0	0	0	0	-0	-90	1
LeftLeg	0	0	0	0	-0	-90	1
LeftFoot	0	0	0	66.57150701	-66.57150701	-90	1
LeftToeBase	0	0	0	0	-90	0	1
RightUpLeg	0	0	0	0	-0	-90	1
RightLeg	0	0	0	0	-0	-90	1
RightFoot	0	0	0	66.57150701	-66.57150701	-90	1
RightToeBase	0	0	0	0	-90	0	1
[reference]
29	0	0	0	0	-0	0	1.0
30	0	0	0	0	-0	0	1.0
31	0	0	0	0	-0	0	1.0
32	0	0	0	0	-0	0	1.0
33	0	0	0	0	-0	0	1.0
[Hips]
29	2.136038303	8.834295273	1.741363764	2.128813505	-134.1299896	3.052923679	1.0
30	2.335055113	8.798910141	1.907842755	1.90245223	-134.9197235	3.154020071	1.0
31	2.560339928	8.762119293	2.124330044	2.926239014	-136.0479736	2.691955566	1.0
32	2.827128172	8.695217133	2.35524869	2.858916044	-136.6322021	2.798002005	1.0
33	3.113074541	8.602808952	2.619033813	3.110744238	-136.8764954	2.781393528	1.0
[Spine]
29	0	0.7478299737	0	-11.53391552	10.52117062	-89.97586823	1.0
30	0	0.7478299737	0	-11.27780342	10.77549458	-90.04820251	1.0
31	0	0.7478299737	0	-11.11940384	11.19975471	-89.85134888	1.0
32	0	0.7478299737	0	-10.05651569	10.98371315	-89.4723587	1.0
33	0	0.7478299737	0	-8.829873085	10.26865387	-88.98511505	1.0
[Spine1]
29	0	2.049309969	0	9.334145546	3.523516655	-0.2138362378	1.0
30	0	2.049309969	0	9.411672592	3.598632574	-0.1516876072	1.0
31	0	2.049309969	0	9.457626343	3.790832043	-0.7526831031	1.0
32	0	2.049309969	0	9.064556122	3.70552206	-0.8634217381	1.0
33	0	2.049309969	0	8.712082863	3.504887581	-1.422301888	1.0
[Neck]
29	0	2.231709957	0	-9.947072983	9.132246017	-86.9106369	1.0
30	0	2.231709957	0	-10.72268009	9.212449074	-86.49169159	1.0
31	0	2.231709957	0	-10.92961788	9.063344955	-86.50291443	1.0
32	0	2.231709957	0	-10.76924896	9.136779785	-86.57035065	1.0
33	0	2.231709957	0	-11.13952255	9.623407364	-87.18269348	1.0
[Head]
29	0	1.413589954	0.1823999882	-1.801274061	2.034088373	-92.23754883	1.0
30	0	1.413589954	0.1823999882	-1.402243376	2.214727879	-93.26667786	1.0
31	0	1.413589954	0.1823999882	-1.782537818	2.070753813	-93.52918243	1.0
32	0	1.413589954	0.1823999882	-2.51610899	2.173797607	-93.95413208	1.0
33	0	1.413589954	0.1823999882	-2.211007833	2.614718914	-93.17056274	1.0
[LeftShoulder]
29	0.3649300039	1.825889945	-0.04271000251	-6.262339592	-6.905348778	6.661540031	1.0
30	0.3649300039	1.825889945	-0.04271000251	-6.081905365	-6.955091476	6.676305771	1.0
31	0.3649300039	1.825889945	-0.04271000251	-6.336496353	-6.795998573	6.405279636	1.0
32	0.3649300039	1.825889945	-0.04271000251	-6.413254261	-6.443059921	5.756315231	1.0
33	0.3649300039	1.825889945	-0.04271000251	-6.960247993	-6.139816761	4.932960987	1.0
[LeftArm]
29	1.24003005	0	0	-0.4148584008	29.29981613	-73.77703857	1.0
30	1.24003005	0	0	-0.1982194483	29.86048698	-73.89509583	1.0
31	1.24003005	0	0	-1.555641413	29.04701042	-73.98078156	1.0
32	1.24003005	0	0	2.973510027	26.26993942	-75.07850647	1.0
33	1.24003005	0	0	11.16355801	22.40874481	-76.28430939	1.0
[LeftForeArm]
29	2.847419977	0	0	5.202716351	-0.3769884109	-19.69609451	1.0
30	2.847419977	0	0	4.405706882	0.1220164597	-18.85087967	1.0
31	2.847419977	0	0	4.029546738	1.168898106	-17.91114235	1.0
32	2.847419977	0	0	0.8472687602	0.9889882803	-15.58399391	1.0
33	2.847419977	0	0	-3.241549253	0.5493379235	-13.16889477	1.0
[LeftHand]
29	2.258270025	0	0	5.111515999	0.8403449655	-3.77421689	1.0
30	2.258270025	0	0	4.405156136	0.7173866034	-3.40801692	1.0
31	2.258270025	0	0	4.194364548	0.8153865337	-2.732397318	1.0
32	2.258270025	0	0	0.9700623751	0.5373433232	-2.721237659	1.0
33	2.258270025	0	0	-3.181595087	0.6843444705	-1.653484821	1.0
[RightShoulder]
29	-0.3646599948	1.825889945	-0.04271000251	-10.42287731	13.33518791	-183.5281677	1.0
30	-0.3646599948	1.825889945	-0.04271000251	-10.55882263	13.14747524	-183.6817932	1.0
31	-0.3646599948	1.825889945	-0.04271000251	-10.37048721	12.98917198	-183.5694885	1.0
32	-0.3646599948	1.825889945	-0.04271000251	-10.31094646	12.68405724	-183.2245178	1.0
33	-0.3646599948	1.825889945	-0.04271000251	-10.32352161	12.53904915	-182.9015961	1.0
[RightArm]
29	-1.24003005	0	0	77.73776245	17.11787987	-97.67228699	1.0
30	-1.24003005	0	0	78.24015808	18.14321136	-96.54502869	1.0
31	-1.24003005	0	0	77.801651	18.36817932	-95.60948181	1.0
32	-1.24003005	0	0	76.171875	17.8486557	-95.03466034	1.0
33	-1.24003005	0	0	73.63175964	16.5909729	-94.73166656	1.0
[RightForeArm]
29	-2.847419977	0	0	3.591932535	51.36762238	170.489975	1.0
30	-2.847419977	0	0	2.128732204	51.20001221	167.9422455	1.0
31	-2.847419977	0	0	1.026591778	48.88694763	166.2809143	1.0
32	-2.847419977	0	0	1.052872658	45.56608582	166.5438232	1.0
33	-2.847419977	0	0	1.277343154	41.03473282	167.1740417	1.0
[RightHand]
29	-2.258270025	0	0	7.443300724	12.97780609	-186.4098206	1.0
30	-2.258270025	0	0	7.119490623	12.80828667	-187.1184082	1.0
31	-2.258270025	0	0	6.442181587	12.58657551	-187.6079712	1.0
32	-2.258270025	0	0	5.869600296	12.36268806	-187.9095001	1.0
33	-2.258270025	0	0	5.230049133	12.47049618	-187.9103699	1.0
[LeftUpLeg]
29	0.9119900465	0	0	-7.574248314	-1.154862761	88.84263611	1.0
30	0.9119900465	0	0	-9.550540924	0.3810817599	89.30589294	1.0
31	0.9119900465	0	0	-12.75326157	1.219844937	89.17709351	1.0
32	0.9119900465	0	0	-16.45095825	-1.031353593	90.66989136	1.0
33	0.9119900465	0	0	-21.27757645	-5.363843441	93.99723816	1.0
[LeftLeg]
29	0	-4.371409893	0	-0.494672209	0.9066567421	86.64019012	1.0
30	0	-4.371409893	0	0.4040844738	0.9441956878	85.90756226	1.0
31	0	-4.371409893	0	1.833629251	2.018614769	86.03830719	1.0
32	0	-4.371409893	0	3.985158682	5.216760635	85.1687088	1.0
33	0	-4.371409893	0	7.403614998	9.518759727	83.1187439	1.0
[LeftFoot]
29	0	-3.918009996	0	-80.87190247	117.1808014	-47.8081665	1.0
30	0	-3.918009996	0	-82.94557953	117.4813309	-50.43435669	1.0
31	0	-3.918009996	0	-83.5131073	117.2461777	-52.38928986	1.0
32	0	-3.918009996	0	-84.43924713	117.7315369	-53.48777008	1.0
33	0	-3.918009996	0	-83.57159424	117.9907684	-51.87458801	1.0
[LeftToeBase]
29	0	-0.5927900076	1.367989898	0	0	0	1.0
30	0	-0.5927900076	1.367989898	0	0	0	1.0
31	0	-0.5927900076	1.367989898	0	0	0	1.0
32	0	-0.5927900076	1.367989898	0	0	0	1.0
33	0	-0.5927900076	1.367989898	0	0	0	1.0
[RightUpLeg]
29	-0.9119900465	0	0	-2.899642229	-24.12420845	96.40249634	1.0
30	-0.9119900465	0	0	0.2133717388	-22.38842583	96.1426239	1.0
31	-0.9119900465	0	0	1.275541544	-18.00357819	96.70176697	1.0
32	-0.9119900465	0	0	0.6979190111	-12.19213963	97.64794922	1.0
33	-0.9119900465	0	0	-1.203379273	-12.03972149	98.8864212	1.0
[RightLeg]
29	0	-4.371409893	0	41.46742249	2.765808821	78.54956055	1.0
30	0	-4.371409893	0	35.61685562	4.394242764	81.74617004	1.0
31	0	-4.371409893	0	30.07319832	3.515215874	82.06469727	1.0
32	0	-4.371409893	0	28.59358025	5.568874359	85.42495728	1.0
33	0	-4.371409893	0	27.94793129	5.26142168	84.64515686	1.0
[RightFoot]
29	0	-3.918009996	0	71.93806458	52.97951126	103.4421234	1.0
30	0	-3.918009996	0	66.21826172	53.80535126	96.76838684	1.0
31	0	-3.918009996	0	63.86842728	55.87104797	98.53068542	1.0
32	0	-3.918009996	0	48.37734222	54.63645935	88.54049683	1.0
33	0	-3.918009996	0	41.66402435	56.69540405	87.20619202	1.0
[RightToeBase]
29	0	-0.5927900076	1.367989898	0	0	0	1.0
30	0	-0.5927900076	1.367989898	0	0	0	1.0
31	0	-0.5927900076	1.367989898	0	0	0	1.0
32	0	-0.5927900076	1.367989898	0	0	0	1.0
33	0	-0.5927900076	1.367989898	0	0	0	1.0
[EndOfFile]
